<svg xmlns="http://www.w3.org/2000/svg" xmlns:xlink="http://www.w3.org/1999/xlink" viewBox="0 0 465.76 455.76"><defs><style>.cls-1{fill:none;}.cls-2{clip-path:url(#clip-path);}.cls-3{fill:#fff;}</style><clipPath id="clip-path" transform="translate(-0.11)"><rect class="cls-1" x="0.11" y="-3.71" width="465.43" height="465.43"/></clipPath></defs><g id="Layer_1" data-name="Layer 1"><g class="cls-2"><rect width="465.76" height="455.76" rx="10.73"/></g></g><g id="Layer_3" data-name="Layer 3"><path class="cls-3" d="M133.86,269h43.83c.93,10.11,2,20.13,2.7,30.18.26,3.67,1.62,5.36,5.3,6.28,13.38,3.36,26.64,7.2,40,10.61a17,17,0,0,0,8.07.1q20.31-5.22,40.46-11.07c1.7-.49,4.1-2.35,4.26-3.78,1.89-17.73,3.43-35.51,5.13-54H131.87c-1.31-14.7-2.57-28.77-3.88-43.48H287.25c1.34-15.15,2.62-29.74,4-45.09H124.07c-1.35-14.72-2.64-28.78-4-43.3H339.15c-.78,9.35-1.5,18.62-2.32,27.89q-6,67.17-12,134.34c-1.66,18.53-3.46,37.06-5,55.6-.29,3.42-1.37,5-4.86,6-27.18,7.36-54.28,15-81.45,22.4a14.78,14.78,0,0,1-7.5-.09q-41-11.34-81.82-23.1c-1.81-.52-4.32-2.67-4.48-4.27C137.6,312.65,135.8,291,133.86,269Z" transform="translate(-0.11)"/></g></svg>