<svg id="Layer_1" data-name="Layer 1" xmlns="http://www.w3.org/2000/svg" xmlns:xlink="http://www.w3.org/1999/xlink" viewBox="0 0 465.76 455.76"><defs><style>.cls-1{fill:none;}.cls-2{clip-path:url(#clip-path);}.cls-3{fill:#fff;}</style><clipPath id="clip-path" transform="translate(-0.11)"><rect class="cls-1" x="0.11" y="-3.71" width="465.43" height="465.43"/></clipPath></defs><g class="cls-2"><rect width="465.76" height="455.76" rx="10.73"/></g><path class="cls-3" d="M181.25,269.88c-18-8.39-27.83-21.92-27.79-41,0-18.9,9.87-32.3,27.54-40.64-1.5-.85-2.68-1.55-3.89-2.18a43.62,43.62,0,0,1-22.72-48.3c4.22-19.13,20.68-33.47,40.62-33.83q43.23-.78,86.48,0c19.83.38,36.39,15,40.43,34.05a43.72,43.72,0,0,1-22.55,47.95c-1.27.67-2.53,1.36-4.13,2.22,18.67,9,28.81,23.45,27.43,43.81-1.29,19-11.76,32.62-30.09,38.38-21.1,6.64-38-.78-51.56-19.07,0,7.73.08,14.47,0,21.22-.22,15.15.47,30.4-1,45.42-2.06,20.68-21,36.1-42.36,36.33s-39.88-14.84-43.46-35.36c-3.45-19.79,5.79-38.22,23.74-47.36C178.76,271.09,179.63,270.68,181.25,269.88Zm53.57-85.26v-75c-13.92,0-27.58-.8-41.11.19A37.11,37.11,0,0,0,159.19,145c-.82,19.58,12,36.88,31.54,39.26C205.12,186,219.9,184.62,234.82,184.62Zm6.48.43c13.47,0,26.43.24,39.38-.06,19.33-.45,35.65-16.6,36.38-35.56.78-20.27-13.34-37.83-33.09-39.42-13.87-1.12-27.9-.39-41.86-.45-.24,0-.49.4-.81.69ZM235,191.11c-12.85,0-25.29-.1-37.73,0-21.17.2-38,16.85-38.07,37.55a37.93,37.93,0,0,0,37.93,38.2c11.48.13,23,0,34.44,0a31.64,31.64,0,0,0,3.43-.39ZM234.2,273c-12.95,0-26.09-.3-39.21.07-19,.52-35.15,16.89-35.8,35.61-.7,20.06,13.48,37.2,32.67,39.49,20.31,2.42,39.55-10,42-29.5C235.68,303.81,234.2,288.56,234.2,273Zm82.89-43.68a38,38,0,1,0-38,37.61A38.06,38.06,0,0,0,317.09,229.3Zm-62.58-39.18,1.33,1.13h-14.4v14.58c-.42-.56-.84-1.12-1.25-1.69Z" transform="translate(-0.11)"/></svg>