<svg xmlns="http://www.w3.org/2000/svg" xmlns:xlink="http://www.w3.org/1999/xlink" viewBox="0 0 465.76 455.76"><defs><style>.cls-1{fill:none;}.cls-2{clip-path:url(#clip-path);}.cls-3,.cls-4{fill:#fff;}.cls-4{stroke:#fff;}.cls-5{fill:#020202;}</style><clipPath id="clip-path" transform="translate(-0.11)"><rect class="cls-1" x="0.11" y="-3.71" width="465.43" height="465.43"/></clipPath></defs><g id="Layer_1" data-name="Layer 1"><g class="cls-2"><rect width="465.76" height="455.76" rx="10.73"/></g></g><g id="Layer_3" data-name="Layer 3"><path class="cls-3" d="M314.34,155.18c-1.36,15.54-2.67,30.68-4,45.82q-4.86,54.52-9.75,109.05c-.24,2.62-.5,5.24-.81,7.86-.62,5.19.43,11.84-2.41,15.16s-9.57,3.48-14.63,4.89c-16.47,4.6-32.89,9.35-49.46,13.53a27.26,27.26,0,0,1-13.07,0c-20-5.19-39.85-10.92-59.75-16.47-1.78-.49-3.54-1.07-5.47-1.67-5.3-59.39-10.58-118.56-15.91-178.21ZM178.66,268.56c1,11.07,1.65,21.19,2.92,31.23.21,1.65,2.79,3.74,4.67,4.31,12.23,3.66,24.56,7,36.91,10.3a13.38,13.38,0,0,0,6.5.13c12.72-3.32,25.37-6.93,38.08-10.31,2.95-.78,4.24-2.17,4.48-5.37.95-13,2.24-25.87,3.36-38.8.68-8,1.28-16,2-24.54H197.68c-.69-7.57-1.34-14.61-2.06-22.46h7.16c23.91,0,47.82.1,71.72-.07,1.86,0,5.1-1.6,5.31-2.86,1-6,1.19-12.19,1.69-18.52H171.73c2,22.08,3.94,43.74,6,66.06h75.89c-.81,9.12-1.49,17.49-2.38,25.85-.11,1-1.13,2.66-2,2.85-10.76,2.32-20.67,7.7-32.79,4-10-3-17.43-5.65-15.62-18,.16-1.07-2.19-3.54-3.48-3.62C191.37,268.34,185.36,268.56,178.66,268.56Z" transform="translate(-0.11)"/><path class="cls-4" d="M239.6,139.14H228.76V106.89c10.08-3.86,14.51,2.37,18.28,11.16,4.27-8.12,8.16-15.4,18.56-11v32H255V125.2l-1.12-.38-6.71,9.76-7.54-10.79Z" transform="translate(-0.11)"/><path class="cls-4" d="M176.64,139V128.64h-9.93c-.18,3.45-.35,6.75-.54,10.38H155.65V106.55h10.42c.23,3.23.46,6.51.71,10.08h9.47c.23-3.35.46-6.63.7-10.21h10.53V139Z" transform="translate(-0.11)"/><path class="cls-4" d="M193.14,106.47h30.2v10.22l-9.45.7V139H202.53V117.42l-9.39-.66Z" transform="translate(-0.11)"/><path class="cls-4" d="M271.88,106.46H282.6v21.73H298V139H271.88Z" transform="translate(-0.11)"/><path class="cls-5" d="M178.66,268.56c6.7,0,12.71-.22,18.67.18,1.29.08,3.64,2.55,3.48,3.62-1.81,12.35,5.63,15,15.62,18,12.12,3.7,22-1.68,32.79-4,.85-.19,1.87-1.81,2-2.85.89-8.36,1.57-16.73,2.38-25.85H177.69c-2-22.32-4-44-6-66.06H281.5c-.5,6.33-.68,12.5-1.69,18.52-.21,1.26-3.45,2.84-5.31,2.86-23.9.17-47.81.09-71.72.07h-7.16c.72,7.85,1.37,14.89,2.06,22.46h79.86c-.68,8.58-1.28,16.56-2,24.54-1.12,12.93-2.41,25.85-3.36,38.8-.24,3.2-1.53,4.59-4.48,5.37-12.71,3.38-25.36,7-38.08,10.31a13.38,13.38,0,0,1-6.5-.13c-12.35-3.27-24.68-6.64-36.91-10.3-1.88-.57-4.46-2.66-4.67-4.31C180.31,289.75,179.62,279.63,178.66,268.56Z" transform="translate(-0.11)"/></g></svg>