<svg xmlns="http://www.w3.org/2000/svg" xmlns:xlink="http://www.w3.org/1999/xlink" viewBox="0 0 465.76 455.76"><defs><style>.cls-1{fill:none;}.cls-2{clip-path:url(#clip-path);}.cls-3{fill:#fff;}</style><clipPath id="clip-path" transform="translate(-0.11)"><rect class="cls-1" x="0.11" y="-3.71" width="465.43" height="465.43"/></clipPath></defs><g id="Layer_1" data-name="Layer 1"><g class="cls-2"><rect width="465.76" height="455.76" rx="10.73"/></g></g><g id="Layer_2" data-name="Layer 2"><path class="cls-3" d="M215.62,281.46h-71.1c-.63,2.24-1.29,4.49-1.88,6.75q-7.72,29.35-15.43,58.69c-.15.58-.3,1.15-.49,1.71a2.5,2.5,0,0,1-2.3,1.81,11.81,11.81,0,0,1-1.33,0H91.45c-.37,0-.75,0-1.11,0-1.58-.14-2.32-1-2-2.52.26-1.38.7-2.72,1.09-4.08Q101.2,302.49,113,261.13q19.29-67.55,38.58-135.08a69.14,69.14,0,0,0,2.17-15.8c.05-1.18.14-2.36.3-3.53.21-1.51.51-1.74,2-1.83.37,0,.74,0,1.12,0h44.33c.37,0,.75,0,1.12,0,1.73.08,2.17.39,2.69,2.08.93,3,1.83,6.11,2.72,9.17q13,44.25,26,88.5Q247.63,250.8,261.25,297q7.15,24.3,14.34,48.61a19.53,19.53,0,0,1,.66,2.58,1.77,1.77,0,0,1-1.77,2.28,6.58,6.58,0,0,1-.89,0H237.72a8.75,8.75,0,0,1-.89,0c-1.83-.18-2.47-.73-3-2.7q-2.83-10.29-5.64-20.58-5.91-21.66-11.8-43.32C216.16,283.05,215.89,282.29,215.62,281.46ZM179.65,141c-7.1,35.07-16.78,69.48-26,104.13h52.57C197.44,210.29,187.79,175.86,179.65,141Z" transform="translate(-0.11)"/><path class="cls-3" d="M309.29,259.37q0-41.43,0-82.87c0-1.56,0-3.12-.08-4.68,0-1.73.56-2.43,2.28-2.6.52-.05,1,0,1.56,0h32.53c.44,0,.89,0,1.34,0,1.77.13,2.38.73,2.48,2.45,0,.6,0,1.19,0,1.79V346.33c0,3.94-.18,4.12-4.18,4.12H312.7c-2.6-.05-3.38-.85-3.41-3.53,0-.52,0-1,0-1.56Z" transform="translate(-0.11)"/><path class="cls-3" d="M352.07,121.8a22.37,22.37,0,0,1-1.46,8.82,19,19,0,0,1-11.27,11.61,27.22,27.22,0,0,1-17.88.87c-7.16-2-11.71-6.8-13.8-13.84a26.41,26.41,0,0,1,0-15.35c2.77-9.27,10.44-14.68,20-15.25a24.25,24.25,0,0,1,12.15,2.06c7.94,3.81,11.71,10.35,12.26,19C352.1,120.27,352.07,120.86,352.07,121.8Z" transform="translate(-0.11)"/></g></svg>