<svg xmlns="http://www.w3.org/2000/svg" xmlns:xlink="http://www.w3.org/1999/xlink" viewBox="0 0 465.76 455.76"><defs><style>.cls-1{fill:none;}.cls-2{clip-path:url(#clip-path);}.cls-3{fill:#fff;}</style><clipPath id="clip-path" transform="translate(-0.11)"><rect class="cls-1" x="0.11" y="-3.71" width="465.43" height="465.43"/></clipPath></defs><g id="Layer_1" data-name="Layer 1"><g class="cls-2"><rect width="465.76" height="455.76" rx="10.73"/></g></g><g id="Layer_3" data-name="Layer 3"><path class="cls-3" d="M88.24,106.51c39.84-4.17,78.91-10.08,117.38,2.77,28.25,9.43,44.21,30,46.74,59.46,2.77,32.36-7.75,59.16-37.52,75.88-22.14,12.44-46.31,14.39-71,13.51q-4.2-.15-8.4-.05c-.7,0-1.38.58-2.88,1.25v89.21H88.24Zm44.63,31.6v83.78c25,1.46,49.95,4.87,67.44-18.13,10.1-13.29,10.3-37.19.4-49.75C182.62,131.06,157.64,136.34,132.87,138.11Z" transform="translate(-0.11)"/><path class="cls-3" d="M368.66,207.25c-14.72-2.47-27.89-5.68-41.22-6.59-10.05-.69-19.41,3.52-21.52,15-2.05,11.12,5.48,16.85,14.41,20.82,8.76,3.89,17.83,7.1,26.53,11.1C373.35,259.76,385.92,278,384,300.85c-2.19,26-16.84,42.12-46.21,49.63-27.46,7-53.8,2.81-80-9.6l7.75-29.26c17.22,3.12,33.4,6.94,49.8,8.69,10.71,1.13,21.13-2.07,24.23-14.77,2.7-11-2.26-19-15.54-25-8.38-3.79-17.28-6.41-25.58-10.35-26.56-12.59-38.85-30.93-35.74-52.51,3.71-25.68,22.66-45.62,50.9-48,17.87-1.49,36.28,2.67,54.37,4.89,6.84.85,9,5.45,6.62,12.32C372.14,194.05,370.34,201.41,368.66,207.25Z" transform="translate(-0.11)"/></g></svg>