<?xml version="1.0" encoding="utf-8"?>
<!-- Generator: Adobe Illustrator 26.0.0, SVG Export Plug-In . SVG Version: 6.00 Build 0)  -->
<svg version="1.1" id="Layer_1" xmlns="http://www.w3.org/2000/svg" xmlns:xlink="http://www.w3.org/1999/xlink" x="0px" y="0px"
	 viewBox="0 0 465.8 455.8" style="enable-background:new 0 0 465.8 455.8;" xml:space="preserve">
<style type="text/css">
	.st0{clip-path:url(#SVGID_00000035519282923701196720000008186144378159945118_);}
	.st1{fill:#FFFFFF;}
</style>
<g id="Layer_1_00000030474482563698377790000007979211233628975512_">
	<g>
		<defs>
			<rect id="SVGID_1_" y="-3.7" width="465.4" height="465.4"/>
		</defs>
		<clipPath id="SVGID_00000036972811030178847640000012386789526467504768_">
			<use xlink:href="#SVGID_1_"  style="overflow:visible;"/>
		</clipPath>
		<g style="clip-path:url(#SVGID_00000036972811030178847640000012386789526467504768_);">
			<path d="M10.7,0H455c5.9,0,10.7,4.8,10.7,10.7V445c0,5.9-4.8,10.7-10.7,10.7H10.7C4.8,455.8,0,451,0,445V10.7C0,4.8,4.8,0,10.7,0
				z"/>
		</g>
	</g>
	
		<image style="overflow:visible;enable-background:new    ;" width="256" height="256" xlink:href="41925FBE.png"  transform="matrix(1 0 0 1 105.27 100.05)">
	</image>
</g>
<g id="Layer_3">
	<path d="M284.3,238.6h-40v-95.4h70c-0.6,6.9-1.2,13.6-1.8,20.7h-46.9V217h42.1c-2.5,27.7-5,54.6-7.4,81.8L244,310
		c0-6.9-0.1-13.3,0.1-19.7c0.1-0.9,2.1-2.3,3.3-2.6c9.7-2.1,19.5-3.9,29.2-6.1c1.4-0.3,3.6-1.8,3.7-2.9
		C281.9,265.5,283,252.3,284.3,238.6z"/>
	<path class="st1" d="M81.1,291.5c2.7-12.5,5.4-24.9,7.9-37.4c5.2-25.6,10.2-51.2,15.3-76.8c0.2-1.3,0.8-2.5,1.3-4.2
		c11.4,0,22.9-0.1,34.4,0c6.3,0,12.7-0.2,19,0.6c16.8,2.2,26.5,13.2,26.8,31.2c0.3,18.3-6.1,34.2-20.1,46.6
		c-8.5,7.5-18.9,9.4-29.7,10c-7,0.4-14,0.3-21,0.1c-3.1-0.1-4.3,0.8-4.9,4c-1.4,8-3.3,16-4.7,24c-0.5,3.1-1.5,4.3-4.7,4.1
		c-6.5-0.3-13-0.1-19.5-0.1L81.1,291.5z M114.8,242.8c11.6,0.3,22.5,0.4,32.8-3.9c2.8-1.4,5.2-3.5,6.9-6.2c5.3-8.7,7.7-19,6.6-29.1
		c-0.4-5-3-8.7-8.2-9.3c-8.6-0.9-17.1-1.4-25.7-1.8c-1,0-2.6,1.8-2.9,3c-1.5,6.1-2.6,12.3-3.8,18.5
		C118.6,223.3,116.7,232.7,114.8,242.8L114.8,242.8z"/>
	<path class="st1" d="M304.2,293.3h-23.1c2.8-14,5.5-27.8,8.2-41.6c4.9-24.8,9.9-49.5,14.8-74.3c0.6-3.1,1.6-4.5,5.1-4.4
		c13.8,0.2,27.6,0,41.5,0.2c4.2,0,8.3,0.5,12.4,1.4c12.8,3,21.1,13.2,22.2,26.3c1.1,12.2-1.4,24.4-7.3,35.2
		c-9,16.5-23,25.3-42.1,25.5c-7,0.1-14,0.2-21,0.1c-2.9-0.1-4.4,0.5-4.9,3.9C308.3,274.7,306.2,283.9,304.2,293.3z M314.3,243.8
		c10.3-1.2,19.5-2.1,28.6-3.3c5.5-0.7,9.5-4,12-8.8c4.7-8.7,7.1-18.1,5.8-27.8c-0.4-3.1-2.9-7.5-5.5-8.6c-9.8-3.9-20.3-3.9-30.8-2.6
		C321.2,209.3,318,225.6,314.3,243.8L314.3,243.8z"/>
	<path class="st1" d="M268.9,261.3h-23.6c3.5-17.2,6.9-34.2,10.3-51.1c0.1-0.5,0.3-1,0.4-1.4c2.3-12.5-0.8-16.2-13.5-16.2
		c-5.8,0-11.6,0-17.9,0l-13.8,68.8h-22.9c1.1-6.1,2.2-12.1,3.4-18c6.6-32.9,13.3-65.9,19.8-98.8c0.6-2.8,1.5-3.9,4.5-3.9
		c6.3,0.2,12.6,0.1,19.3,0.1c-2.2,10.9-4.2,21.3-6.4,32.3c6.4,0,12.1-0.2,17.9,0.1s11.7,0.5,17.3,1.8c13.7,3.1,19.5,12,17,25.9
		C276.9,220.8,272.9,240.8,268.9,261.3z"/>
</g>
</svg>
