<svg xmlns="http://www.w3.org/2000/svg" xmlns:xlink="http://www.w3.org/1999/xlink" viewBox="0 0 465.76 455.76"><defs><style>.cls-1{fill:none;}.cls-2{clip-path:url(#clip-path);}.cls-3{fill:#fff;}</style><clipPath id="clip-path" transform="translate(-0.11)"><rect class="cls-1" x="0.11" y="-3.71" width="465.43" height="465.43"/></clipPath></defs><g id="Layer_1" data-name="Layer 1"><g class="cls-2"><rect width="465.76" height="455.76" rx="10.73"/></g></g><g id="Layer_3" data-name="Layer 3"><path class="cls-3" d="M132.45,269.47c0,20.1,0,40.53,0,61,0,16.24,0,16.26-16,16.26q-14.18,0-28.36-.21c-1.15,0-2.3-.66-4.35-1.28V100.88c37.6-.15,74.89-6.51,111.8,2.69,41.74,10.41,64.6,41.58,62.58,84-2,42.23-27.7,71.41-70,77.76C170.33,268,152.21,268.07,132.45,269.47Zm1.29-42.74c17.91-2.44,34.41-3,49.88-7.24,17.72-4.89,25.93-19.81,24.66-38-1.23-17.75-10.88-30.56-28.62-33.84-14.7-2.72-29.92-2.61-45.92-3.83Z" transform="translate(-0.11)"/><path class="cls-3" d="M292.23,160c12.63,0,26.07-.35,39.46.32,2.45.12,5.63,4,6.8,6.86,1.82,4.46,2.22,9.5,2.64,11.54,16.41-7.39,32.7-15.33,49.48-22,10.13-4.05,15.15.06,14.39,11.71-.79,12.18-.17,24.45-.17,35.85-15.62,3.3-29.66,5.75-43.41,9.33-12.36,3.23-18.49,10.49-17.92,25,1.23,31.17.38,62.43.38,93.64v14H292.23Z" transform="translate(-0.11)"/></g></svg>