<svg id="Layer_1" data-name="Layer 1" xmlns="http://www.w3.org/2000/svg" viewBox="0 0 204.78 194.35"><defs><style>.cls-1{fill:#fff;}</style></defs><path class="cls-1" d="M186.42,174.57l89.39-96.76L236,77.59a8.5,8.5,0,0,0-6.19,2.7l-56.06,59L163.53,150l-21.38,22.5-3,3.22-32.38,34.09V95.63a17.26,17.26,0,0,0-34.51,0V254.37a17.25,17.25,0,0,0,31.46,9.78L165,197.74Z" transform="translate(-72.22 -77.59)"/><path class="cls-1" d="M203,192.34l-21.56,23.51,46.9,51.64a13.3,13.3,0,0,0,10,4.45l38.7-.21Z" transform="translate(-72.22 -77.59)"/></svg>